# xmcd
#
# Track frame offsets: 
#        150
#        16735
#        30123
#        46510
#        60085
#        74710
#        87085
#        101483
#        115135
#        132458
#
# Disc length: 1978 seconds
#
# Revision: 2
# Processed by: cddbd v1.5.1PL0 Copyright (c) Steve Scherf et al.
# Submitted via: ExactAudioCopy v0.95a5
#
DISCID=6e07b80a
DTITLE=Various Artist - Duets In Love
DYEAR=1900
DGENRE=Country
TTITLE0=Tammy Wynette and Mark Gray - Sometimes When We Touch
TTITLE1=George Jones and Lacey J. Dalton - Size Seven Round (Made Of Gol
TTITLE1=d)
TTITLE2=Merle Haggard and Janie Frickie - A Place To Fall Apart
TTITLE3=Charly McClain and Mickey Gilley - Paradise Tonight
TTITLE4=Charlie Rich and Janie Frickie - On My Knees
TTITLE5=Moe Bandy and Becky Hobbs - Let's Get Over Them Together
TTITLE6=David Houston and Barbara Mandrell - I Love You, I Love You
TTITLE7=Johnny Cash and June Carter Cash - If I Were A Carpenter
TTITLE8=Ricky Skaggs and Sharon White - Love Can't Ever Get Better Than 
TTITLE8=This
TTITLE9=Les Taylor and Shelby Lynne - The Very First Lasting Love
EXTD=
EXTT0=
EXTT1=
EXTT2=
EXTT3=
EXTT4=
EXTT5=
EXTT6=
EXTT7=
EXTT8=
EXTT9=
PLAYORDER=
